# xmcd
#
# Track frame offsets:
#	150
#	11417
#	20928
#	31801
#	43608
#	53339
#	65254
#	78767
#	88076
#	99196
#
# Disc length: 1437 seconds
#
# Revision: 1
# Processed by: cddbd v1.5.2PL0 Copyright (c) Steve Scherf et al.
# Submitted via: audiograbber 1.83.01
#
DISCID=67059b0a
DTITLE=Freddie Hart - Greatest Hits
DYEAR=1974
DGENRE=Country
TTITLE0=Easy Loving
TTITLE1=The Want-To's
TTITLE2=Hang in There Girl
TTITLE3=Super Kind of Woman
TTITLE4=My Hang-Up is You
TTITLE5=Trip to Heaven
TTITLE6=My Woman's Man
TTITLE7=If You Can't Feel It (It Ain't There)
TTITLE8=Got the All Overs for You  (All Over Me)
TTITLE9=Bless Your Heart
EXTD=
EXTT0=
EXTT1=
EXTT2=
EXTT3=
EXTT4=
EXTT5=
EXTT6=
EXTT7=
EXTT8=
EXTT9=
PLAYORDER=
